<?xml version="1.0" encoding="UTF-8"?>
<svg id="Layer_1" data-name="Layer 1" xmlns="http://www.w3.org/2000/svg" viewBox="0 0 1600 1600">
  <defs>
    <style>
      .cls-1 {
        fill: #fff;
      }
    </style>
  </defs>
  <g>
    <path class="cls-1" d="M123.04,498.79c1.04.17,5.91,1.68,14.62,4.53,8.71,2.85,19.28,6.04,31.7,9.57,12.42,3.54,24.88,6.64,37.39,9.32,12.51,2.68,23.16,4.01,31.96,4.01,7.59,0,13.8-1.12,18.63-3.36,4.83-2.24,7.25-6.38,7.25-12.42,0-6.55-3.45-12.51-10.35-17.86-6.9-5.34-15.75-10.87-26.52-16.56-10.78-5.69-22.25-12.16-34.42-19.41-12.16-7.25-23.64-15.95-34.42-26.14-10.78-10.18-19.63-22.38-26.52-36.62-6.9-14.23-10.35-31.27-10.35-51.11,0-24.32,5.09-44.9,15.27-61.72,10.18-16.82,23.85-30.36,41.02-40.63,17.16-10.26,36.49-17.73,57.97-22.38,21.48-4.66,43.51-6.99,66.12-6.99,19.15,0,37.26,1.04,54.34,3.11,17.08,2.07,31.53,4.31,43.34,6.73,11.81,2.42,19.28,4.06,22.38,4.92v118.78c-14.32-3.11-26.87-5.6-37.65-7.5-10.78-1.9-21.91-3.62-33.38-5.18-11.48-1.55-21.52-2.33-30.15-2.33-7.94,0-13.89,1.38-17.86,4.14-3.97,2.76-5.95,6.04-5.95,9.83,0,3.11,1.72,6.51,5.18,10.22,3.45,3.71,7.59,6.6,12.42,8.67,18.11,7.94,35.19,16.04,51.24,24.32,16.04,8.28,30.19,17.86,42.44,28.72,12.25,10.87,21.87,24.11,28.85,39.72,6.99,15.62,10.48,34.72,10.48,57.32,0,26.91-6.77,50.38-20.31,70.39-13.55,20.02-33.04,35.54-58.48,46.58-25.45,11.04-56.11,16.56-91.99,16.56-30.88,0-56.33-1.47-76.34-4.4-20.02-2.94-35.71-6.25-47.1-9.96-11.39-3.71-21.65-8.49-30.79-14.36v-118.52Z"/>
    <path class="cls-1" d="M502.67,635.94V200.42h153.71v148.28c11.21-14.83,25.79-26.31,43.73-34.42,17.94-8.11,36.75-12.16,56.41-12.16,23.12,0,44.08,5.39,62.88,16.17,18.8,10.78,33.77,26.31,44.9,46.58,11.12,20.27,16.69,44.55,16.69,72.85v198.22h-154.75v-139.48c0-28.63-4.57-51.67-13.72-69.09-9.15-17.42-19.58-26.14-31.31-26.14-8.97,0-15.36,3.23-19.15,9.7-3.8,6.47-5.69,14.54-5.69,24.2v200.81h-153.71Z"/>
    <path class="cls-1" d="M1096.56,645.51c-20.87,0-41.23-3.28-61.07-9.83-19.84-6.55-37.78-16.34-53.83-29.37-16.04-13.02-28.81-29.11-38.3-48.26-9.49-19.15-14.23-41.4-14.23-66.76,0-31.57,5.65-59.21,16.95-82.94,11.3-23.72,26.61-43.47,45.93-59.26,19.32-15.79,41.23-27.64,65.73-35.58,24.49-7.93,49.94-11.9,76.34-11.9,33.47,0,60.68,5.09,81.64,15.27,20.96,10.18,36.36,23.29,46.19,39.33,9.83,16.04,14.75,32.95,14.75,50.72,0,19.15-6.12,37.7-18.37,55.64-12.25,17.95-30.24,32.7-53.96,44.25-23.72,11.56-52.92,17.34-87.59,17.34-3.28,0-7.64-.04-13.07-.13-5.44-.08-10.14-.21-14.1-.39,0,10.87,2.59,18.72,7.76,23.55,5.18,4.83,11.69,7.85,19.54,9.06,7.85,1.21,15.74,1.81,23.68,1.81,7.07,0,17.03-1.16,29.89-3.49,12.85-2.33,26.78-6.6,41.79-12.81,15.01-6.21,29.24-15.09,42.7-26.65l16.04,80.48c-20.36,17.6-46.11,30.32-77.24,38.17-31.14,7.85-63.53,11.77-97.17,11.77ZM1089.57,464.63l56.67-12.68,4.92-39.59c0-1.04.09-2.03.26-2.98.17-.95.26-1.94.26-2.98,0-15.18-7.08-22.77-21.22-22.77-12.25,1.04-20.79,5.22-25.62,12.55-4.83,7.34-7.94,16.91-9.32,28.72-1.38,11.82-3.36,25.06-5.95,39.72Z"/>
    <path class="cls-1" d="M1477.99,635.94h-146.73V200.42h146.73v435.52Z"/>
  </g>
  <g>
    <path class="cls-1" d="M269.38,1070.98l47.87,94.71c7.07-15.87,14.36-31.7,21.87-47.49,7.5-15.79,14.88-31.53,22.13-47.23h123.44l-158.63,321.14c-1.55,3.27-4.23,5.78-8.02,7.5-3.8,1.72-7.94,2.59-12.42,2.59-4.14,0-8.2-.87-12.16-2.59-3.97-1.73-6.82-4.23-8.54-7.5l-166.91-321.14h151.38Z"/>
    <path class="cls-1" d="M643.83,1402.22c-20.88,0-41.23-3.28-61.07-9.83-19.84-6.55-37.78-16.34-53.83-29.37-16.04-13.02-28.81-29.11-38.3-48.26-9.49-19.15-14.23-41.4-14.23-66.76,0-31.57,5.65-59.21,16.95-82.94,11.3-23.72,26.61-43.47,45.93-59.26,19.32-15.79,41.23-27.64,65.73-35.58,24.49-7.93,49.94-11.9,76.34-11.9,33.47,0,60.68,5.09,81.64,15.27,20.96,10.18,36.36,23.29,46.19,39.33,9.83,16.04,14.75,32.95,14.75,50.72,0,19.15-6.12,37.7-18.37,55.64-12.25,17.95-30.24,32.7-53.96,44.25-23.72,11.56-52.92,17.34-87.59,17.34-3.28,0-7.63-.04-13.07-.13-5.43-.08-10.14-.21-14.1-.39,0,10.87,2.59,18.72,7.76,23.55,5.18,4.83,11.68,7.85,19.54,9.06,7.85,1.21,15.74,1.81,23.68,1.81,7.07,0,17.03-1.16,29.89-3.49,12.85-2.33,26.78-6.6,41.79-12.81,15.01-6.21,29.24-15.09,42.7-26.65l16.04,80.48c-20.36,17.6-46.11,30.32-77.24,38.17-31.14,7.85-63.53,11.77-97.17,11.77ZM636.84,1221.33l56.67-12.68,4.92-39.59c0-1.04.09-2.03.26-2.98.17-.95.26-1.94.26-2.98,0-15.18-7.08-22.77-21.22-22.77-12.25,1.04-20.79,5.22-25.62,12.55-4.83,7.34-7.94,16.91-9.32,28.72-1.38,11.82-3.36,25.06-5.95,39.72Z"/>
    <path class="cls-1" d="M861.98,1247.99c0-32.61,5.43-60.77,16.3-84.49,10.87-23.72,25.49-43.3,43.86-58.74,18.37-15.44,38.82-26.87,61.33-34.29,22.52-7.41,45.42-11.13,68.71-11.13,12.25,0,24.37.82,36.36,2.46,11.99,1.64,23.51,4.19,34.55,7.63v-112.31h150.61v435.52h-96.01l-37-53.57c-16.22,21.39-35.24,37.18-57.06,47.36-21.83,10.18-44.3,15.27-67.41,15.27-19.5,0-38.43-3.45-56.8-10.35-18.38-6.9-34.9-16.99-49.56-30.28-14.66-13.28-26.31-29.41-34.93-48.39-8.63-18.98-12.94-40.54-12.94-64.69ZM1048.04,1294.56c10.87,0,21.05-1.98,30.54-5.95,9.48-3.97,18.02-8.62,25.62-13.97,7.59-5.34,13.88-10,18.89-13.97v-92.12c-5.87-3.62-12.51-5.43-19.93-5.43-9.49,0-18.98,2.89-28.47,8.67-9.49,5.78-18.2,13.46-26.14,23.03-7.94,9.57-14.28,19.97-19.02,31.18-4.74,11.22-7.11,22.25-7.11,33.12,0,8.11,1.94,16.04,5.82,23.81,3.88,7.76,10.48,11.64,19.79,11.64Z"/>
    <path class="cls-1" d="M1411.1,1250.06c15.7,0,28.81,3.36,39.33,10.09,10.52,6.73,18.41,15.44,23.68,26.14,5.26,10.7,7.89,22.09,7.89,34.16,0,13.29-3.2,26.18-9.57,38.69-6.38,12.51-15.96,22.82-28.72,30.92-12.77,8.11-28.81,12.16-48.13,12.16-16.39,0-29.8-3.28-40.24-9.83-10.44-6.55-18.16-15.18-23.16-25.88-5.01-10.69-7.5-22.08-7.5-34.16,0-12.94,3.45-25.7,10.35-38.3,6.9-12.59,16.82-23.07,29.76-31.44,12.94-8.37,28.38-12.55,46.32-12.55Z"/>
  </g>
  <path class="cls-1" d="M0,762.16v75.68c0,15,12.16,27.16,27.16,27.16h4.01c15,0,27.16,12.16,27.16,27.16v46.6c0,15,12.16,27.16,27.16,27.16h75.68c15,0,27.16-12.16,27.16-27.16v-46.6c0-15,12.16-27.16,27.16-27.16h1173.04c15,0,27.16,12.16,27.16,27.16v46.6c0,15,12.16,27.16,27.16,27.16h75.68c15,0,27.16-12.16,27.16-27.16v-46.6c0-15,12.16-27.16,27.16-27.16h0c15,0,27.16-12.16,27.16-27.16v-75.68c0-15-12.16-27.16-27.16-27.16H27.16c-15,0-27.16,12.16-27.16,27.16Z"/>
</svg>