<svg width="27" height="27" viewBox="0 0 27 27" fill="none" xmlns="http://www.w3.org/2000/svg">
<path d="M13.456 26.9119C20.8875 26.9119 26.9119 20.8875 26.9119 13.456C26.9119 6.02444 20.8875 0 13.456 0C6.02444 0 0 6.02444 0 13.456C0 20.8875 6.02444 26.9119 13.456 26.9119Z" fill="white"/>
<path d="M8.86467 7.77803C10.723 9.16001 12.7219 11.9621 13.4558 13.4659C14.1897 11.9622 16.1885 9.15999 18.0469 7.77803C19.3878 6.78085 21.5604 6.00929 21.5604 8.46444C21.5604 8.95477 21.2766 12.5834 21.1102 13.1725C20.5316 15.2207 18.4232 15.7431 16.5478 15.4269C19.826 15.9796 20.6599 17.8102 18.859 19.6408C15.4385 23.1176 13.9428 18.7685 13.5594 17.6541C13.4891 17.4498 13.4562 17.3543 13.4557 17.4355C13.4553 17.3543 13.4224 17.4498 13.3521 17.6541C12.9689 18.7685 11.4732 23.1177 8.05254 19.6408C6.25153 17.8102 7.08544 15.9794 10.3637 15.4269C8.48821 15.7431 6.37983 15.2207 5.80133 13.1725C5.63487 12.5834 5.35107 8.95471 5.35107 8.46444C5.35107 6.00929 7.52373 6.78085 8.86457 7.77803H8.86467Z" fill="#1C1819"/>
</svg>
