<svg width="25" height="25" viewBox="0 0 25 25" fill="none" xmlns="http://www.w3.org/2000/svg">
<path d="M24.9999 12.4999C24.9999 5.59645 19.4035 0 12.4999 0C5.59642 0 0 5.59645 0 12.4999C0 18.739 4.57104 23.9102 10.5469 24.8478V16.1131H7.37301V12.4999H10.5469V9.74598C10.5469 6.61328 12.413 4.88278 15.2682 4.88278C16.6359 4.88278 18.0663 5.12694 18.0663 5.12694V8.20305H16.4901C14.9373 8.20305 14.453 9.16662 14.453 10.1551V12.4999H17.9199L17.3656 16.1131H14.453V24.8478C20.4289 23.9102 24.9999 18.739 24.9999 12.4999Z" fill="#1C1819"/>
<path d="M17.3676 16.1132L17.9219 12.4999H14.455V10.1552C14.455 9.16665 14.9393 8.20309 16.4921 8.20309H18.0683V5.12697C18.0683 5.12697 16.6379 4.88281 15.2702 4.88281C12.415 4.88281 10.5489 6.61331 10.5489 9.74602V12.4999H7.375V16.1132H10.5489V24.8479C11.1853 24.9477 11.8375 24.9998 12.5019 24.9998C13.1664 24.9998 13.8186 24.9477 14.455 24.8479V16.1132H17.3676Z" fill="white"/>
</svg>
