<svg width="25" height="25" viewBox="0 0 25 25" fill="none" xmlns="http://www.w3.org/2000/svg">
<path d="M12.5 25C19.4035 25 25 19.4035 25 12.5C25 5.59644 19.4035 0 12.5 0C5.59643 0 0 5.59644 0 12.5C0 19.4035 5.59643 25 12.5 25Z" fill="#1C1819"/>
<path d="M18.9927 11.0596C18.8649 11.0721 18.7365 11.0786 18.608 11.0792C17.199 11.0794 15.8849 10.3692 15.113 9.19035V15.6222C15.113 18.2477 12.9847 20.376 10.3593 20.376C7.73378 20.376 5.60547 18.2477 5.60547 15.6222C5.60547 12.9968 7.73378 10.8685 10.3593 10.8685C10.4585 10.8685 10.5555 10.8773 10.653 10.8835V13.2261C10.5555 13.2144 10.4596 13.1965 10.3593 13.1965C9.01931 13.1965 7.93305 14.2828 7.93305 15.6228C7.93305 16.9628 9.01931 18.049 10.3593 18.049C11.6995 18.049 12.8831 16.9931 12.8831 15.6529L12.9065 4.72925H15.1477C15.359 6.73897 16.9795 8.30876 18.9949 8.45615V11.0596" fill="white"/>
</svg>
