<svg width="25" height="25" viewBox="0 0 25 25" fill="none" xmlns="http://www.w3.org/2000/svg">
<path d="M12.4999 24.9998C19.4034 24.9998 24.9998 19.4034 24.9998 12.4999C24.9998 5.59639 19.4034 0 12.4999 0C5.59639 0 0 5.59639 0 12.4999C0 19.4034 5.59639 24.9998 12.4999 24.9998Z" fill="#1C1819"/>
<path d="M16.3787 7.771C15.9042 7.771 15.5195 8.1557 15.5195 8.63018C15.5195 9.10473 15.9042 9.48944 16.3787 9.48944C16.8533 9.48944 17.238 9.10473 17.238 8.63018C17.238 8.1557 16.8533 7.771 16.3787 7.771Z" fill="white"/>
<path d="M12.5606 8.87305C10.5704 8.87305 8.95117 10.4922 8.95117 12.4824C8.95117 14.4725 10.5704 16.0917 12.5606 16.0917C14.5507 16.0917 16.1699 14.4725 16.1699 12.4824C16.1699 10.4922 14.5507 8.87305 12.5606 8.87305ZM12.5606 14.7944C11.2857 14.7944 10.2485 13.7573 10.2485 12.4824C10.2485 11.2075 11.2857 10.1704 12.5606 10.1704C13.8354 10.1704 14.8725 11.2075 14.8725 12.4824C14.8725 13.7573 13.8354 14.7944 12.5606 14.7944Z" fill="white"/>
<path d="M15.4236 19.8105H9.57218C7.14476 19.8105 5.16992 17.8356 5.16992 15.4082V9.55655C5.16992 7.12904 7.14476 5.1543 9.57218 5.1543H15.4236C17.851 5.1543 19.8261 7.12904 19.8261 9.55655V15.4082C19.8261 17.8356 17.851 19.8105 15.4236 19.8105ZM9.57218 6.53317C7.90494 6.53317 6.54871 7.88931 6.54871 9.55655V15.4082C6.54871 17.0754 7.90494 18.4317 9.57218 18.4317H15.4236C17.0908 18.4317 18.4472 17.0754 18.4472 15.4082V9.55655C18.4472 7.88931 17.0908 6.53317 15.4236 6.53317H9.57218Z" fill="white"/>
</svg>
