<svg width="25" height="25" viewBox="0 0 25 25" fill="none" xmlns="http://www.w3.org/2000/svg">
<path d="M12.5 25C19.4035 25 25 19.4035 25 12.5C25 5.59644 19.4035 0 12.5 0C5.59644 0 0 5.59644 0 12.5C0 19.4035 5.59644 25 12.5 25Z" fill="#1C1819"/>
<path d="M19.1903 10.6825C19.1903 9.02483 17.8465 7.68091 16.1887 7.68091H8.51331C6.85555 7.68091 5.51172 9.02483 5.51172 10.6825V14.2543C5.51172 15.9121 6.85555 17.2559 8.51331 17.2559H16.1887C17.8465 17.2559 19.1903 15.9121 19.1903 14.2543V10.6825ZM14.6765 12.7361L11.2346 14.4389C11.0997 14.5119 10.6412 14.4142 10.6412 14.2607V10.7654C10.6412 10.61 11.1034 10.5125 11.2384 10.5894L14.5331 12.3819C14.6712 12.4605 14.8162 12.6604 14.6765 12.7361Z" fill="white"/>
</svg>
