<svg width="25" height="25" viewBox="0 0 25 25" fill="none" xmlns="http://www.w3.org/2000/svg">
<path d="M12.5 25C19.4036 25 25 19.4036 25 12.5C25 5.59644 19.4036 0 12.5 0C5.59644 0 0 5.59644 0 12.5C0 19.4036 5.59644 25 12.5 25Z" fill="#1C1819"/>
<path d="M12.5468 20.8056C9.23035 20.8056 6.49157 19.0787 5.59602 15.5868C5.09159 13.6152 5.21193 11.3909 5.49373 9.96685C5.80963 8.36831 6.83755 6.14399 8.69282 5.13813C10.6444 4.08113 12.978 4.06007 14.383 4.36293C16.158 4.74602 17.4427 5.51119 18.4255 6.77178C19.4644 8.10456 19.7362 9.45039 19.7472 9.50655L18.3563 9.77832L19.0512 9.64293L18.3563 9.78133C18.3543 9.77029 18.1286 8.69725 17.3073 7.64325C16.5301 6.64642 15.5363 6.06176 14.0831 5.74887C12.8215 5.4771 10.875 5.56735 9.36673 6.38468C7.84441 7.21002 7.08926 9.19767 6.88268 10.2416C6.643 11.4551 6.52165 13.4909 6.96792 15.2338C7.41619 16.9818 8.405 18.2053 9.90627 18.8711C11.6081 19.6263 13.6589 19.4317 14.8984 19.0366C16.1309 18.6435 17.2541 17.5323 17.5109 16.4523C17.8418 15.0613 17.3243 13.9903 16.2322 13.3605C16.0076 14.8918 15.2855 16.0371 14.1804 16.5415C12.5317 17.2947 10.3746 16.6859 9.65355 15.2649C9.25642 14.4807 9.27547 13.533 9.7057 12.7899C9.99953 12.2824 10.7567 11.416 12.5317 11.3217C13.3711 11.2776 14.1373 11.3107 14.8272 11.422C14.6868 10.5716 14.2396 9.53964 12.8988 9.48849C11.6773 9.44236 11.0956 9.96384 10.8219 10.4101L9.61343 9.67001C9.92432 9.16357 10.871 7.99224 12.9529 8.07247C14.8894 8.14568 16.1691 9.58176 16.2934 11.8191C18.4154 12.6776 19.4063 14.603 18.8888 16.7782C18.5147 18.3527 17.0506 19.8359 15.3287 20.3854C14.5605 20.6301 13.5847 20.8036 12.5448 20.8036L12.5468 20.8056ZM13.2427 12.7207C12.4114 12.7207 11.3514 12.7768 10.9332 13.4999C10.7406 13.8328 10.7356 14.2631 10.9181 14.6241C11.2882 15.3542 12.6631 15.6781 13.5927 15.2529C14.3098 14.9249 14.7611 14.0605 14.8674 12.8671C14.384 12.7688 13.8414 12.7197 13.2427 12.7197V12.7207Z" fill="white"/>
</svg>
