<svg width="25" height="25" viewBox="0 0 25 25" fill="none" xmlns="http://www.w3.org/2000/svg">
<path d="M12.5 25C19.4036 25 25 19.4036 25 12.5C25 5.59644 19.4036 0 12.5 0C5.59644 0 0 5.59644 0 12.5C0 19.4036 5.59644 25 12.5 25Z" fill="#1C1819"/>
<path d="M8.23663 7.22556C9.96297 8.50936 11.8198 11.1124 12.5016 12.5093C13.1834 11.1125 15.0402 8.50934 16.7666 7.22556C18.0122 6.29923 20.0304 5.58248 20.0304 7.86321C20.0304 8.3187 19.7668 11.6896 19.6122 12.2368C19.0747 14.1395 17.1161 14.6247 15.374 14.331C18.4192 14.8444 19.1939 16.545 17.5209 18.2456C14.3435 21.4754 12.954 17.4352 12.5978 16.4C12.5325 16.2102 12.502 16.1215 12.5015 16.197C12.5011 16.1215 12.4706 16.2102 12.4053 16.4C12.0493 17.4352 10.6598 21.4755 7.4822 18.2456C5.80914 16.545 6.5838 14.8443 9.62915 14.331C7.88692 14.6247 5.92833 14.1395 5.39092 12.2368C5.23629 11.6895 4.97266 8.31865 4.97266 7.86321C4.97266 5.58248 6.99096 6.29923 8.23654 7.22556H8.23663Z" fill="white"/>
</svg>
