<svg width="27" height="27" viewBox="0 0 27 27" fill="none" xmlns="http://www.w3.org/2000/svg">
<path d="M13.4558 26.9117C20.8873 26.9117 26.9117 20.8873 26.9117 13.4558C26.9117 6.02438 20.8873 0 13.4558 0C6.02439 0 0 6.02438 0 13.4558C0 20.8873 6.02439 26.9117 13.4558 26.9117Z" fill="white"/>
<path d="M17.6324 8.36523C17.1216 8.36523 16.7075 8.77936 16.7075 9.29012C16.7075 9.80097 17.1216 10.2151 17.6324 10.2151C18.1433 10.2151 18.5574 9.80097 18.5574 9.29012C18.5574 8.77936 18.1433 8.36523 17.6324 8.36523Z" fill="#1C1819"/>
<path d="M13.5212 9.55176C11.3788 9.55176 9.63574 11.2947 9.63574 13.4371C9.63574 15.5794 11.3788 17.3225 13.5212 17.3225C15.6635 17.3225 17.4065 15.5794 17.4065 13.4371C17.4065 11.2947 15.6635 9.55176 13.5212 9.55176ZM13.5212 15.9259C12.1488 15.9259 11.0323 14.8095 11.0323 13.4371C11.0323 12.0647 12.1488 10.9483 13.5212 10.9483C14.8935 10.9483 16.0099 12.0647 16.0099 13.4371C16.0099 14.8095 14.8935 15.9259 13.5212 15.9259Z" fill="#1C1819"/>
<path d="M16.6052 21.3254H10.3063C7.69325 21.3254 5.56738 19.1995 5.56738 16.5864V10.2873C5.56738 7.67411 7.69325 5.54834 10.3063 5.54834H16.6052C19.2183 5.54834 21.3444 7.67411 21.3444 10.2873V16.5864C21.3444 19.1995 19.2183 21.3254 16.6052 21.3254ZM10.3063 7.03267C8.51156 7.03267 7.05162 8.49252 7.05162 10.2873V16.5864C7.05162 18.3812 8.51156 19.8411 10.3063 19.8411H16.6052C18.3999 19.8411 19.8601 18.3812 19.8601 16.5864V10.2873C19.8601 8.49252 18.3999 7.03267 16.6052 7.03267H10.3063Z" fill="#1C1819"/>
</svg>
